<?xml version="1.0" standalone="no"?>
<!DOCTYPE svg PUBLIC "-//W3C//DTD SVG 20010904//EN"
 "http://www.w3.org/TR/2001/REC-SVG-20010904/DTD/svg10.dtd">
<svg version="1.0" xmlns="http://www.w3.org/2000/svg"
 width="224.000000pt" height="224.000000pt" viewBox="0 0 224.000000 224.000000"
 preserveAspectRatio="xMidYMid meet">
<metadata>
Created by potrace 1.14, written by Peter Selinger 2001-2017
</metadata>
<g transform="translate(0.000000,224.000000) scale(0.100000,-0.100000)"
fill="#000000" stroke="none">
<path d="M1019 1834 c-182 -34 -336 -149 -415 -309 -53 -109 -63 -174 -64
-454 0 -220 -2 -249 -18 -270 -27 -37 -64 -46 -106 -26 -19 9 -39 27 -43 38
-4 12 -7 133 -8 268 0 191 -3 250 -14 263 -17 20 -65 21 -85 0 -18 -17 -18
-17 -18 -314 0 -178 3 -223 16 -255 74 -175 324 -167 384 13 7 21 12 132 12
292 1 277 8 324 59 414 54 95 173 187 276 215 236 63 483 -74 555 -307 17 -55
20 -95 20 -327 l1 -264 27 -53 c36 -71 99 -111 174 -110 29 0 65 5 79 10 40
16 88 61 111 105 19 38 20 57 20 266 -1 307 0 298 -18 315 -21 22 -61 20 -81
-4 -15 -17 -17 -50 -18 -267 0 -196 -4 -253 -15 -270 -37 -58 -127 -49 -151
14 -5 12 -9 134 -9 270 -1 137 -6 271 -12 298 -5 28 -28 88 -50 135 -87 181
-261 301 -464 318 -52 5 -105 3 -145 -4z"/>
<path d="M22 1504 c-22 -15 -22 -15 -22 -354 0 -207 4 -360 11 -392 16 -77 55
-152 112 -214 161 -177 425 -195 617 -43 56 44 130 149 130 183 -1 26 -21 53
-40 56 -37 6 -52 -4 -83 -52 -75 -115 -170 -171 -291 -170 -132 1 -238 64
-299 177 -32 61 -35 97 -36 441 0 346 0 349 -22 366 -26 22 -48 23 -77 2z"/>
<path d="M2129 1503 c-11 -13 -15 -92 -19 -382 -5 -353 -6 -368 -27 -411 -72
-145 -226 -221 -377 -185 -96 22 -155 65 -217 156 -33 50 -44 59 -69 59 -35 0
-62 -34 -55 -70 12 -62 111 -169 201 -217 231 -123 502 -33 621 206 l38 76 3
375 c3 374 3 375 -19 392 -27 23 -62 23 -80 1z"/>
<path d="M901 1074 c-29 -36 -26 -70 7 -103 22 -22 34 -27 60 -23 97 14 85
152 -13 152 -24 0 -39 -7 -54 -26z"/>
<path d="M1235 1074 c-39 -42 -16 -117 39 -126 76 -13 123 65 75 126 -28 36
-81 36 -114 0z"/>
</g>
</svg>
